<svg width="424" height="413" viewBox="0 0 424 413" fill="none" xmlns="http://www.w3.org/2000/svg">
<path fill-rule="evenodd" clip-rule="evenodd" d="M197.964 1.178C175.221 2.515 146.998 10.016 125.531 20.429C113.168 26.426 96.034 37.386 85.5 46.037C71.825 57.267 54.61 76.558 44.073 92.458C31.091 112.046 18.62 142.921 13.943 167.046C9.551 189.702 9.408 224.909 13.69 229.092C16.084 231.43 40.055 233.029 42.485 231.012C43.747 229.965 44 226.366 44 209.45C44 187.277 44.876 178.51 48.555 163.869C58.92 122.614 85.502 84.828 120.906 61.021C129.002 55.577 149.049 46.035 159.5 42.651C206.059 27.575 259.266 33.954 297.536 59.199C328.863 79.864 344.835 97.952 362.263 132.5C373.844 155.458 378 176.427 378 211.902C378 224.229 378.357 230.102 379.134 230.583C379.758 230.969 386.322 231.333 393.721 231.392C412.518 231.543 411.388 233.43 410.713 203C410.243 181.796 409.892 178.071 407.122 164.871C393.599 100.438 351.493 45.712 295.7 20.054C263.146 5.082 232.438 -0.847997 197.964 1.178ZM205.5 65.871C200.031 69.267 197.273 73.374 185.265 96C174.979 115.383 171.558 121.795 164.993 134C154.406 153.681 131.974 196.222 124.627 210.555C117.037 225.36 111.143 232.766 104.251 236.16C99.505 238.497 99.454 238.5 58 238.535C3.169 238.582 6.467 238.379 2.923 241.923C0.32 244.526 0 245.526 0 251.057C0 259.494 1.732 264.643 5.953 268.749C12.73 275.342 10.602 275.08 62.33 275.687C109.423 276.239 109.51 276.236 115.5 273.996C122.948 271.209 130.97 263.414 136.586 253.505C138.739 249.707 155.386 217.102 173.581 181.05C209.477 109.921 209.124 110.492 214.704 114.599C216.483 115.909 220.251 122.084 225.065 131.579C229.225 139.785 234.675 150.325 237.176 155C239.676 159.675 250.168 180.15 260.491 200.5C292.889 264.368 294.189 266.466 305.133 272.527L310.5 275.5L359 275.486C412.833 275.471 411.177 275.662 417.693 268.711C425.758 260.11 426.093 244.054 418.295 239.895C416.145 238.748 407.895 238.557 371.95 238.818C343.406 239.026 326.859 238.77 324.301 238.081C318.165 236.429 311.659 231.528 307.271 225.253C305.059 222.089 295.045 203.538 285.018 184.029C274.992 164.52 264.879 145.17 262.544 141.029C260.209 136.888 255.009 127.2 250.988 119.5C238.792 96.147 227.025 74.9 224.333 71.37C218.971 64.34 211.484 62.154 205.5 65.871ZM364.5 282.67C361.512 283.485 359.843 285.135 358.319 288.781C356.288 293.639 348.578 305.417 341.481 314.5C323.236 337.855 294.041 358.53 263.996 369.374C246.299 375.761 238.866 377.062 216.5 377.687C191.959 378.372 179.247 376.803 161.5 370.897C148.913 366.709 129.36 356.972 117.492 348.983C97.278 335.376 76.844 312.744 63.785 289.5L60.414 283.5H43.957H27.5L27.193 286.154C26.819 289.38 34.879 305.871 42.758 318C64.704 351.786 91.263 375.326 127.186 392.829C170.969 414.161 216.631 418.448 262.458 405.53C289.518 397.901 316.074 384.061 336.69 366.842C359.663 347.653 378.287 324.113 390.519 298.804C395.822 287.83 396.82 284.625 395.238 283.647C394.063 282.921 366.762 282.053 364.5 282.67Z" fill="#DC2C40"/>
</svg>
